ISO-10303-21;
HEADER;
FILE_DESCRIPTION(('STEP AP214'),'1');
FILE_NAME('surface.stp','2026-10-01T15:03:20',(' '),(' '),'Spatial InterOp 3D',' ',' ');
FILE_SCHEMA(('AUTOMOTIVE_DESIGN { 1 0 10303 214 1 1 1 1 }'));
ENDSEC;
DATA;
#1=PRODUCT_DEFINITION_CONTEXT('',#9,'design');
#2=APPLICATION_PROTOCOL_DEFINITION('INTERNATIONAL STANDARD','automotive_design',1994,#9);
#3=PRODUCT_CATEGORY_RELATIONSHIP('NONE','NONE',#10,#11);
#4=SHAPE_DEFINITION_REPRESENTATION(#12,#13);
#5=(GEOMETRIC_REPRESENTATION_CONTEXT(3)GLOBAL_UNCERTAINTY_ASSIGNED_CONTEXT((#16))GLOBAL_UNIT_ASSIGNED_CONTEXT((#18,#19,#20))REPRESENTATION_CONTEXT('NONE','WORKSPACE'));
#9=APPLICATION_CONTEXT(' ');
#10=PRODUCT_CATEGORY('part','NONE');
#11=PRODUCT_RELATED_PRODUCT_CATEGORY('detail',' ',(#22));
#12=PRODUCT_DEFINITION_SHAPE('NONE','NONE',#23);
#13=MANIFOLD_SURFACE_SHAPE_REPRESENTATION('1',(#24,#25),#5);
#16=UNCERTAINTY_MEASURE_WITH_UNIT(LENGTH_MEASURE(1.0E-06),#18,'','');
#18= (CONVERSION_BASED_UNIT('MILLIMETRE',#28)LENGTH_UNIT()NAMED_UNIT(#31));
#19= (NAMED_UNIT(#33)PLANE_ANGLE_UNIT()SI_UNIT($,.RADIAN.));
#20= (NAMED_UNIT(#33)SOLID_ANGLE_UNIT()SI_UNIT($,.STERADIAN.));
#22=PRODUCT('1','','PART--DESC',(#39));
#23=PRODUCT_DEFINITION('','NONE',#40,#1);
#24=SHELL_BASED_SURFACE_MODEL('1',(#41));
#25=AXIS2_PLACEMENT_3D('',#42,#43,#44);
#28=LENGTH_MEASURE_WITH_UNIT(LENGTH_MEASURE(1.0),#45);
#31=DIMENSIONAL_EXPONENTS(1.0,0.0,0.0,0.0,0.0,0.0,0.0);
#33=DIMENSIONAL_EXPONENTS(0.0,0.0,0.0,0.0,0.0,0.0,0.0);
#39=PRODUCT_CONTEXT('',#9,'mechanical');
#40=PRODUCT_DEFINITION_FORMATION_WITH_SPECIFIED_SOURCE(' ','NONE',#22,.NOT_KNOWN.);
#41=CLOSED_SHELL('',(#46));
#42=CARTESIAN_POINT('',(0.0,0.0,0.0));
#43=DIRECTION('',(0.0,0.0,1.0));
#44=DIRECTION('',(1.0,0.0,0.0));
#45= (NAMED_UNIT(#31)LENGTH_UNIT()SI_UNIT(.MILLI.,.METRE.));
#46=FACE_SURFACE('',(#48),#49,.T.);
#48=FACE_BOUND('',#50,.T.);
#49=B_SPLINE_SURFACE_WITH_KNOTS('',3,1,((#51,#52),(#53,#54),(#55,#56),(#57,#58),(#59,#60),(#61,#62),(#63,#64),(#65,#66),(#67,#68),(#69,#70),(#71,#72),(#73,#74),(#75,#76),(#77,#78),(#79,#80),(#81,#82),(#83,#84),(#85,#86),(#87,#88),(#89,#90),(#91,#92),(#93,#94),(#95,#96),(#97,#98),(#99,#100),(#101,#102),(#103,#104),(#105,#106),(#107,#108),(#109,#110),(#111,#112)),.UNSPECIFIED.,.F.,.F.,.F.,(4,3,3,3,3,3,3,3,3,3,4),(2,2),(0.0,0.185095950042602,0.222569684890232,0.364773279708573,0.403315284931076,0.564631087937889,0.566687058954276,0.695513689383179,0.777430315109768,0.859116941189792,1.0),(0.0,1.0),.UNSPECIFIED.);
#50=EDGE_LOOP('',(#113,#114,#115,#116));
#51=CARTESIAN_POINT('',(-65.0,3.75,0.0));
#52=CARTESIAN_POINT('',(-60.1280384273209,-10.2577631356219,50.0));
#53=CARTESIAN_POINT('',(-55.7622653408951,7.70900970661513,0.0));
#54=CARTESIAN_POINT('',(-51.8554443478091,-11.7312194455971,50.0));
#55=CARTESIAN_POINT('',(-46.5245306817902,11.6680194132303,0.0));
#56=CARTESIAN_POINT('',(-43.5828502682974,-13.2046757555723,50.0));
#57=CARTESIAN_POINT('',(-40.0,8.75,0.0));
#58=CARTESIAN_POINT('',(-36.552008911639,-11.6209851591813,50.0));
#59=CARTESIAN_POINT('',(-38.67907140746,8.15923026275583,0.0));
#60=CARTESIAN_POINT('',(-35.1285748241048,-11.3003579305673,50.0));
#61=CARTESIAN_POINT('',(-37.4693524898729,7.28658264996146,0.0));
#62=CARTESIAN_POINT('',(-33.7560380954994,-10.8544233838957,50.0));
#63=CARTESIAN_POINT('',(-36.314874366239,6.22675588209912,0.0));
#64=CARTESIAN_POINT('',(-32.4447031875493,-10.2578123351825,50.0));
#65=CARTESIAN_POINT('',(-31.9339142087473,2.20497430928478,0.0));
#66=CARTESIAN_POINT('',(-27.4685101638353,-7.9938203370448,50.0));
#67=CARTESIAN_POINT('',(-28.3484300915984,-4.51221626207447,0.0));
#68=CARTESIAN_POINT('',(-23.3736328937997,-3.56006323164929,50.0));
#69=CARTESIAN_POINT('',(-22.5,-8.75,0.0));
#70=CARTESIAN_POINT('',(-18.6039276177613,0.342661704438129,50.0));
#71=CARTESIAN_POINT('',(-20.9148767587642,-9.89858336153607,0.0));
#72=CARTESIAN_POINT('',(-17.3111754486356,1.40043274785533,50.0));
#73=CARTESIAN_POINT('',(-19.1635188316376,-10.86503094926,0.0));
#74=CARTESIAN_POINT('',(-15.9688508094312,2.41919447913714,50.0));
#75=CARTESIAN_POINT('',(-17.3217224735071,-11.6355333308001,0.0));
#76=CARTESIAN_POINT('',(-14.5459708827405,3.34517403292043,50.0));
#77=CARTESIAN_POINT('',(-9.61296791412149,-14.8604358671171,0.0));
#78=CARTESIAN_POINT('',(-8.5905719191602,7.220819174477,50.0));
#79=CARTESIAN_POINT('',(-0.319910385692094,-14.6527647897461,0.0));
#80=CARTESIAN_POINT('',(-1.22400317166918,9.47110353020769,50.0));
#81=CARTESIAN_POINT('',(5.0,-10.0,0.0));
#82=CARTESIAN_POINT('',(5.02361359265812,7.9398721051396,50.0));
#83=CARTESIAN_POINT('',(5.06780229437471,-9.94070048082406,0.0));
#84=CARTESIAN_POINT('',(5.10323951119512,7.92035655011869,50.0));
#85=CARTESIAN_POINT('',(5.13495920979893,-9.88067892196223,0.0));
#86=CARTESIAN_POINT('',(5.18268367254303,7.90022674382589,50.0));
#87=CARTESIAN_POINT('',(5.20148972986842,-9.81995510483392,0.0));
#88=CARTESIAN_POINT('',(5.26194083874827,7.87947822250776,50.0));
#89=CARTESIAN_POINT('',(9.37027550210007,-6.01501588873161,0.0));
#90=CARTESIAN_POINT('',(10.228175079495,6.57938105844612,50.0));
#91=CARTESIAN_POINT('',(11.0796800816222,0.54716084517706,0.0));
#92=CARTESIAN_POINT('',(14.4602207067403,2.85005755119173,50.0));
#93=CARTESIAN_POINT('',(15.0,5.0,0.0));
#94=CARTESIAN_POINT('',(18.7524768272012,-0.666995604504004,50.0));
#95=CARTESIAN_POINT('',(17.4928027567986,7.83141426001698,0.0));
#96=CARTESIAN_POINT('',(21.4817816065922,-2.90337426360933,50.0));
#97=CARTESIAN_POINT('',(20.8795384255774,9.80996624562534,0.0));
#98=CARTESIAN_POINT('',(24.2354311180434,-5.05392627428491,50.0));
#99=CARTESIAN_POINT('',(24.6100286010119,11.0286716716822,0.0));
#100=CARTESIAN_POINT('',(27.2176640291392,-6.43952730116355,50.0));
#101=CARTESIAN_POINT('',(28.3300445727759,12.243955303753,0.0));
#102=CARTESIAN_POINT('',(30.1915236398282,-7.82123793651742,50.0));
#103=CARTESIAN_POINT('',(32.3918874224625,12.7036532718608,0.0));
#104=CARTESIAN_POINT('',(33.3926848519002,-8.44228710709799,50.0));
#105=CARTESIAN_POINT('',(36.25,12.5,0.0));
#106=CARTESIAN_POINT('',(36.7377243504114,-8.58184970897011,50.0));
#107=CARTESIAN_POINT('',(42.9039986683395,12.1487638521348,0.0));
#108=CARTESIAN_POINT('',(42.5068375945985,-8.82255014171897,50.0));
#109=CARTESIAN_POINT('',(48.9519993341697,9.82438192606738,0.0));
#110=CARTESIAN_POINT('',(48.7039184317546,-7.63106332122156,50.0));
#111=CARTESIAN_POINT('',(55.0,7.5,0.0));
#112=CARTESIAN_POINT('',(54.9009992689108,-6.43957650072415,50.0));
#113=ORIENTED_EDGE('',*,*,#117,.T.);
#114=ORIENTED_EDGE('',*,*,#118,.T.);
#115=ORIENTED_EDGE('',*,*,#119,.T.);
#116=ORIENTED_EDGE('',*,*,#120,.T.);
#117=EDGE_CURVE('',#121,#122,#123,.T.);
#118=EDGE_CURVE('',#122,#124,#125,.T.);
#119=EDGE_CURVE('',#124,#126,#127,.F.);
#120=EDGE_CURVE('',#126,#121,#128,.F.);
#121=VERTEX_POINT('',#129);
#122=VERTEX_POINT('',#130);
#123=B_SPLINE_CURVE_WITH_KNOTS('',3,(#131,#132,#133,#134,#135,#136,#137,#138,#139),.UNSPECIFIED.,.F.,.F.,(4,1,1,1,1,1,4),(0.0,25.4950975679639,50.2438349094931,77.7722293414246,95.7999857187446,118.334681190395,137.73989956072),.UNSPECIFIED.);
#124=VERTEX_POINT('',#140);
#125=LINE('',#141,#142);
#126=VERTEX_POINT('',#143);
#127=B_SPLINE_CURVE_WITH_KNOTS('',3,(#144,#145,#146,#147,#148,#149,#150,#151),.UNSPECIFIED.,.F.,.F.,(4,1,1,1,1,4),(0.0,27.6833352398153,50.1645686634956,70.4848364090249,96.6971941816481,124.380529421463),.UNSPECIFIED.);
#128=LINE('',#152,#153);
#129=CARTESIAN_POINT('',(-65.0,3.75,0.0));
#130=CARTESIAN_POINT('',(55.0,7.5,0.0));
#131=CARTESIAN_POINT('',(-65.0,3.75,0.0));
#132=CARTESIAN_POINT('',(-55.7622653408951,7.70900970661513,0.0));
#133=CARTESIAN_POINT('',(-37.5572275326466,15.511130470185,0.0));
#134=CARTESIAN_POINT('',(-25.688566300641,-13.7543173825919,0.0));
#135=CARTESIAN_POINT('',(6.71909689297881,-16.4575978367647,0.0));
#136=CARTESIAN_POINT('',(13.1431620709521,8.85247765397181,0.0));
#137=CARTESIAN_POINT('',(35.8806377034746,14.8479985561273,0.0));
#138=CARTESIAN_POINT('',(48.9519993341697,9.82438192606738,0.0));
#139=CARTESIAN_POINT('',(55.0,7.5,0.0));
#140=CARTESIAN_POINT('',(54.9009992689108,-6.43957650072415,50.0));
#141=CARTESIAN_POINT('',(55.0,7.5,0.0));
#142=VECTOR('',#154,51.9068549824038);
#143=CARTESIAN_POINT('',(-60.1280384273209,-10.2577631356219,50.0));
#144=CARTESIAN_POINT('',(-60.1280384273209,-10.2577631356219,50.0));
#145=CARTESIAN_POINT('',(-50.180610311914,-12.029529111783,50.0));
#146=CARTESIAN_POINT('',(-32.155020678378,-15.2401204367383,50.0));
#147=CARTESIAN_POINT('',(-16.7886623258851,4.77210313284161,50.0));
#148=CARTESIAN_POINT('',(8.61119481371964,12.4409124171006,50.0));
#149=CARTESIAN_POINT('',(26.050421442609,-11.9865564654955,50.0));
#150=CARTESIAN_POINT('',(45.1107353378639,-8.32190961038657,50.0));
#151=CARTESIAN_POINT('',(54.9009992689108,-6.43957650072415,50.0));
#152=CARTESIAN_POINT('',(-65.0,3.75,0.0));
#153=VECTOR('',#155,52.1531728433597);
#154=DIRECTION('',(-0.00190727662315043,-0.268549818813904,0.963263908340234));
#155=DIRECTION('',(0.0934163984099664,-0.268588896359071,0.958714441979846));
ENDSEC;
END-ISO-10303-21;
